<svg width="35" height="35" viewBox="0 0 35 35" fill="none" xmlns="http://www.w3.org/2000/svg">
<path d="M17.5 0C19.1064 0 20.6559 0.205078 22.1484 0.615234C23.641 1.02539 25.0309 1.61784 26.3184 2.39258C27.6058 3.16732 28.785 4.07878 29.856 5.12695C30.9269 6.17513 31.8441 7.35433 32.6074 8.66455C33.3708 9.97477 33.9575 11.3704 34.3677 12.8516C34.7778 14.3327 34.9886 15.8822 35 17.5C35 18.9355 34.8348 20.3255 34.5044 21.6699C34.174 23.0143 33.6955 24.2961 33.0688 25.5151C32.4422 26.7342 31.6903 27.8507 30.813 28.8647C29.9357 29.8787 28.9445 30.7959 27.8394 31.6162C26.7342 32.4365 25.5493 33.1087 24.2847 33.6328C23.02 34.1569 21.6699 34.5443 20.2344 34.7949V22.5586H24.3188L25.0879 17.5H20.2344V14.2188C20.2344 13.5921 20.3369 13.0965 20.542 12.7319C20.7471 12.3674 21.0205 12.0939 21.3623 11.9116C21.7041 11.7293 22.0915 11.6097 22.5244 11.5527C22.9574 11.4958 23.4074 11.4673 23.8745 11.4673H24.5923C24.8315 11.4673 25.0651 11.473 25.293 11.4844V7.17773C24.6549 7.0638 24.0055 6.97835 23.3447 6.92139C22.6839 6.86442 22.0288 6.83594 21.3794 6.83594C20.3198 6.83594 19.3799 6.99544 18.5596 7.31445C17.7393 7.63346 17.05 8.08919 16.4917 8.68164C15.9334 9.27409 15.5062 9.98617 15.21 10.8179C14.9137 11.6496 14.7656 12.5895 14.7656 13.6377V17.5H10.3223V22.5586H14.7656V34.7949C13.3415 34.5784 11.9914 34.1968 10.7153 33.6499C9.43929 33.103 8.25439 32.4308 7.16064 31.6333C6.06689 30.8358 5.08138 29.9186 4.2041 28.8818C3.32682 27.8451 2.57487 26.7228 1.94824 25.5151C1.32161 24.3075 0.843099 23.0314 0.512695 21.687C0.182292 20.3426 0.0113932 18.9469 0 17.5C0 15.8936 0.205078 14.3441 0.615234 12.8516C1.02539 11.359 1.61784 9.96908 2.39258 8.68164C3.16732 7.39421 4.07878 6.21501 5.12695 5.14404C6.17513 4.07308 7.35433 3.15592 8.66455 2.39258C9.97477 1.62923 11.3704 1.04248 12.8516 0.632324C14.3327 0.222168 15.8822 0.0113932 17.5 0Z" fill="#5D5D5D"/>
</svg>
