<svg width="45" height="45" viewBox="0 0 45 45" fill="none" xmlns="http://www.w3.org/2000/svg">
<path d="M25.5187 22.9556C25.5074 23.5496 25.32 24.1268 24.9802 24.6142C24.6405 25.1015 24.1637 25.477 23.6103 25.693C23.0569 25.9091 22.4518 25.9559 21.8717 25.8277C21.2916 25.6995 20.7627 25.4019 20.3519 24.9727C19.9412 24.5435 19.6671 24.002 19.5644 23.4169C19.4618 22.8317 19.5351 22.2293 19.7752 21.6859C20.0154 21.1425 20.4114 20.6826 20.9132 20.3646C21.4149 20.0465 21.9998 19.8846 22.5937 19.8994C23.3829 19.9286 24.1297 20.264 24.6758 20.8346C25.2218 21.4051 25.5242 22.1659 25.5187 22.9556Z" fill="#5D5D5D"/>
<path d="M27.6806 13.5618H17.5087C16.5022 13.5618 15.537 13.9616 14.8253 14.6733C14.1136 15.385 13.7137 16.3503 13.7137 17.3568V27.7574C13.7137 28.2558 13.8119 28.7492 14.0026 29.2097C14.1933 29.6701 14.4729 30.0885 14.8253 30.4409C15.1777 30.7933 15.596 31.0728 16.0565 31.2635C16.5169 31.4542 17.0104 31.5524 17.5087 31.5524H27.6806C28.179 31.5524 28.6725 31.4542 29.1329 31.2635C29.5933 31.0728 30.0117 30.7933 30.3641 30.4409C30.7165 30.0885 30.996 29.6701 31.1867 29.2097C31.3775 28.7492 31.4756 28.2558 31.4756 27.7574V17.3755C31.4776 16.8757 31.3809 16.3804 31.1911 15.9181C31.0013 15.4557 30.7222 15.0353 30.3696 14.681C30.0171 14.3267 29.5981 14.0455 29.1367 13.8534C28.6752 13.6614 28.1804 13.5623 27.6806 13.5618ZM22.5937 28.0424C21.5868 28.0651 20.5959 27.7873 19.7476 27.2444C18.8992 26.7015 18.2319 25.9182 17.8307 24.9943C17.4295 24.0705 17.3126 23.048 17.4951 22.0575C17.6775 21.067 18.151 20.1533 18.855 19.433C19.559 18.7127 20.4617 18.2185 21.4478 18.0135C22.4339 17.8085 23.4587 17.902 24.3915 18.282C25.3243 18.662 26.1227 19.3113 26.6848 20.147C27.2469 20.9828 27.5472 21.9671 27.5475 22.9743C27.5557 23.6325 27.4339 24.2859 27.1893 24.897C26.9447 25.5081 26.5819 26.065 26.1218 26.5357C25.6616 27.0065 25.1132 27.3819 24.5078 27.6404C23.9024 27.8989 23.252 28.0355 22.5937 28.0424ZM28.0987 17.908C27.975 17.908 27.8525 17.8834 27.7385 17.8355C27.6244 17.7876 27.521 17.7174 27.4344 17.629C27.3478 17.5407 27.2797 17.4359 27.2341 17.3209C27.1885 17.2059 27.1663 17.083 27.1687 16.9593C27.1687 16.7076 27.2687 16.4663 27.4466 16.2884C27.6246 16.1105 27.8659 16.0105 28.1175 16.0105C28.3691 16.0105 28.6104 16.1105 28.7884 16.2884C28.9663 16.4663 29.0662 16.7076 29.0662 16.9593C29.07 17.0932 29.0447 17.2264 28.9922 17.3497C28.9397 17.4729 28.8611 17.5834 28.7619 17.6735C28.6628 17.7636 28.5453 17.8312 28.4176 17.8717C28.2898 17.9122 28.1548 17.9245 28.0219 17.908H28.0987Z" fill="#5D5D5D"/>
<path d="M22.5938 3.74999C17.6209 3.72513 12.8419 5.67672 9.30805 9.17545C5.77416 12.6742 3.77487 17.4334 3.75001 22.4062C3.72514 27.379 5.67674 32.1581 9.17546 35.692C12.6742 39.2258 17.4334 41.2251 22.4063 41.25C24.8685 41.2623 27.3091 40.7895 29.5887 39.8586C31.8683 38.9277 33.9422 37.5569 35.692 35.8245C37.4418 34.0921 38.8332 32.0321 39.7869 29.7619C40.7405 27.4918 41.2377 25.056 41.25 22.5937C41.2623 20.1315 40.7895 17.6909 39.8586 15.4113C38.9277 13.1317 37.5569 11.0578 35.8246 9.30803C34.0922 7.55823 32.0321 6.16678 29.7619 5.21313C27.4918 4.25948 25.056 3.7623 22.5938 3.74999ZM33.9806 27.5662C33.9859 28.4074 33.8241 29.2413 33.5046 30.0195C33.1852 30.7977 32.7144 31.5047 32.1197 32.0996C31.525 32.6945 30.8181 33.1655 30.04 33.4851C29.2619 33.8048 28.4281 33.9668 27.5869 33.9619H17.6044C16.7632 33.9671 15.9293 33.8053 15.1511 33.4858C14.373 33.1664 13.6659 32.6957 13.071 32.1009C12.4761 31.5062 12.0052 30.7993 11.6855 30.0212C11.3658 29.2431 11.2038 28.4093 11.2088 27.5681V17.5837C11.2035 16.7426 11.3653 15.9087 11.6848 15.1305C12.0042 14.3523 12.4749 13.6453 13.0697 13.0504C13.6644 12.4555 14.3713 11.9845 15.1494 11.6648C15.9275 11.3452 16.7613 11.1831 17.6025 11.1881H27.5869C28.4279 11.1831 29.2616 11.3451 30.0395 11.6647C30.8175 11.9842 31.5243 12.455 32.119 13.0497C32.7137 13.6444 33.1845 14.3512 33.5041 15.1292C33.8236 15.9072 33.9856 16.7408 33.9806 17.5819V27.5662Z" fill="#5D5D5D"/>
</svg>
