<svg width="164" height="48" viewBox="0 0 164 48" fill="none" xmlns="http://www.w3.org/2000/svg">
<path d="M51.7035 11.94V33H46.5735V24.33H38.5935V33H33.4635V11.94H38.5935V20.19H46.5735V11.94H51.7035ZM63.0269 33.24C61.3869 33.24 59.9069 32.89 58.5869 32.19C57.2869 31.49 56.2569 30.49 55.4969 29.19C54.7569 27.89 54.3869 26.37 54.3869 24.63C54.3869 22.91 54.7669 21.4 55.5269 20.1C56.2869 18.78 57.3269 17.77 58.6469 17.07C59.9669 16.37 61.4469 16.02 63.0869 16.02C64.7269 16.02 66.2069 16.37 67.5269 17.07C68.8469 17.77 69.8869 18.78 70.6469 20.1C71.4069 21.4 71.7869 22.91 71.7869 24.63C71.7869 26.35 71.3969 27.87 70.6169 29.19C69.8569 30.49 68.8069 31.49 67.4669 32.19C66.1469 32.89 64.6669 33.24 63.0269 33.24ZM63.0269 28.8C64.0069 28.8 64.8369 28.44 65.5169 27.72C66.2169 27 66.5669 25.97 66.5669 24.63C66.5669 23.29 66.2269 22.26 65.5469 21.54C64.8869 20.82 64.0669 20.46 63.0869 20.46C62.0869 20.46 61.2569 20.82 60.5969 21.54C59.9369 22.24 59.6069 23.27 59.6069 24.63C59.6069 25.97 59.9269 27 60.5669 27.72C61.2269 28.44 62.0469 28.8 63.0269 28.8ZM95.8684 16.08C97.9484 16.08 99.5984 16.71 100.818 17.97C102.058 19.23 102.678 20.98 102.678 23.22V33H97.5784V23.91C97.5784 22.83 97.2884 22 96.7084 21.42C96.1484 20.82 95.3684 20.52 94.3684 20.52C93.3684 20.52 92.5784 20.82 91.9984 21.42C91.4384 22 91.1584 22.83 91.1584 23.91V33H86.0584V23.91C86.0584 22.83 85.7684 22 85.1884 21.42C84.6284 20.82 83.8484 20.52 82.8484 20.52C81.8484 20.52 81.0584 20.82 80.4784 21.42C79.9184 22 79.6384 22.83 79.6384 23.91V33H74.5084V16.26H79.6384V18.36C80.1584 17.66 80.8384 17.11 81.6784 16.71C82.5184 16.29 83.4684 16.08 84.5284 16.08C85.7884 16.08 86.9084 16.35 87.8884 16.89C88.8884 17.43 89.6684 18.2 90.2284 19.2C90.8084 18.28 91.5984 17.53 92.5984 16.95C93.5984 16.37 94.6884 16.08 95.8684 16.08ZM122.046 24.36C122.046 24.84 122.016 25.34 121.956 25.86H110.346C110.426 26.9 110.756 27.7 111.336 28.26C111.936 28.8 112.666 29.07 113.526 29.07C114.806 29.07 115.696 28.53 116.196 27.45H121.656C121.376 28.55 120.866 29.54 120.126 30.42C119.406 31.3 118.496 31.99 117.396 32.49C116.296 32.99 115.066 33.24 113.706 33.24C112.066 33.24 110.606 32.89 109.326 32.19C108.046 31.49 107.046 30.49 106.326 29.19C105.606 27.89 105.246 26.37 105.246 24.63C105.246 22.89 105.596 21.37 106.296 20.07C107.016 18.77 108.016 17.77 109.296 17.07C110.576 16.37 112.046 16.02 113.706 16.02C115.326 16.02 116.766 16.36 118.026 17.04C119.286 17.72 120.266 18.69 120.966 19.95C121.686 21.21 122.046 22.68 122.046 24.36ZM116.796 23.01C116.796 22.13 116.496 21.43 115.896 20.91C115.296 20.39 114.546 20.13 113.646 20.13C112.786 20.13 112.056 20.38 111.456 20.88C110.876 21.38 110.516 22.09 110.376 23.01H116.796ZM129.883 10.8V33H124.753V10.8H129.883ZM150.7 16.26L140.2 40.95H134.68L138.52 32.43L131.71 16.26H137.44L141.31 26.73L145.15 16.26H150.7Z" fill="url(#paint0_linear_1_67)"/>
<path d="M26.3363 34.001C26.3363 34.3502 26.1976 34.6852 25.9506 34.9321C25.7037 35.1791 25.3687 35.3178 25.0195 35.3178H6.58408C6.23484 35.3178 5.8999 35.1791 5.65295 34.9321C5.406 34.6852 5.26726 34.3502 5.26726 34.001V22.1497H1.31682L14.9156 9.78742C15.158 9.56683 15.474 9.44458 15.8018 9.44458C16.1296 9.44458 16.4456 9.56683 16.688 9.78742L30.2867 22.1497H26.3363V34.001ZM9.87611 24.7833C9.87611 26.3549 10.5004 27.8621 11.6117 28.9734C12.723 30.0847 14.2302 30.709 15.8018 30.709C17.3734 30.709 18.8806 30.0847 19.9919 28.9734C21.1031 27.8621 21.7274 26.3549 21.7274 24.7833H19.0938C19.0938 25.6564 18.747 26.4938 18.1296 27.1111C17.5122 27.7285 16.6749 28.0753 15.8018 28.0753C14.9287 28.0753 14.0913 27.7285 13.474 27.1111C12.8566 26.4938 12.5097 25.6564 12.5097 24.7833H9.87611Z" fill="url(#paint1_linear_1_67)"/>
<defs>
<linearGradient id="paint0_linear_1_67" x1="97.4414" y1="0" x2="97.4414" y2="48" gradientUnits="userSpaceOnUse">
<stop stop-color="#DD6F22"/>
<stop offset="1" stop-color="#7F6356"/>
</linearGradient>
<linearGradient id="paint1_linear_1_67" x1="15.8018" y1="9.44458" x2="15.8018" y2="35.3178" gradientUnits="userSpaceOnUse">
<stop stop-color="#7F6356"/>
<stop offset="1" stop-color="#DD6F22"/>
</linearGradient>
</defs>
</svg>
