<svg width="40" height="40" viewBox="0 0 40 40" fill="none" xmlns="http://www.w3.org/2000/svg">
<path d="M20 2.67242C15.962 2.67186 12.0506 4.08184 8.94162 6.65873C5.83269 9.23561 3.72153 12.8175 2.97293 16.7856C2.22432 20.7536 2.8853 24.8585 4.84165 28.391C6.798 31.9235 9.92682 34.6617 13.6875 36.1324C13.54 34.7649 13.3975 32.6549 13.75 31.1624C14.0625 29.8099 15.7825 22.5524 15.7825 22.5524C15.7825 22.5524 15.2675 21.5124 15.2675 19.9824C15.2675 17.5749 16.665 15.7724 18.4 15.7724C19.8775 15.7724 20.595 16.8824 20.595 18.2099C20.595 19.6949 19.65 21.9199 19.1575 23.9749C18.7425 25.7024 20.0175 27.1074 21.72 27.1074C24.7975 27.1074 27.165 23.8574 27.165 19.1699C27.165 15.0224 24.18 12.1224 19.93 12.1224C15 12.1224 12.11 15.8174 12.11 19.6449C12.11 21.1374 12.68 22.7299 13.4 23.5974C13.54 23.7699 13.565 23.9174 13.5175 24.0974L13.0325 26.0649C12.955 26.3849 12.7825 26.4474 12.455 26.2999C10.29 25.2924 8.94 22.1274 8.94 19.5899C8.94 14.1199 12.9075 9.10492 20.385 9.10492C26.3925 9.10492 31.065 13.3849 31.065 19.1124C31.065 25.0824 27.3 29.8949 22.0725 29.8949C20.315 29.8949 18.6675 28.9799 18.1025 27.9024C18.1025 27.9024 17.235 31.2074 17.025 32.0199C16.635 33.5274 15.58 35.4099 14.87 36.5599C17.4634 37.3648 20.2096 37.5487 22.8872 37.097C25.5647 36.6453 28.0986 35.5705 30.2844 33.9594C32.4702 32.3482 34.2467 30.2459 35.4705 27.822C36.6944 25.398 37.3313 22.7203 37.33 20.0049C37.3313 17.7287 36.8841 15.4746 36.0138 13.3713C35.1436 11.268 33.8675 9.35682 32.2583 7.74695C30.6491 6.13708 28.7385 4.86009 26.6356 3.98895C24.5327 3.11781 22.2787 2.66959 20.0025 2.66992L20 2.67242Z" fill="#5D5D5D"/>
</svg>
