<svg width="34" height="34" viewBox="0 0 34 34" fill="none" xmlns="http://www.w3.org/2000/svg">
<path d="M16.7936 29.2944C15.0942 29.2944 13.4959 28.972 11.9987 28.3273C10.5024 27.6816 9.2006 26.8055 8.09318 25.699C6.98577 24.5925 6.10922 23.292 5.46353 21.7975C4.81784 20.3031 4.495 18.7052 4.495 17.004C4.495 15.3028 4.81784 13.7046 5.46353 12.2092C6.10831 10.7129 6.98304 9.41105 8.08772 8.30363C9.1924 7.19622 10.4933 6.31967 11.9905 5.67398C13.4877 5.02829 15.086 4.70544 16.7854 4.70544C18.4848 4.70544 20.083 5.02829 21.5802 5.67398C23.0765 6.31876 24.3784 7.19394 25.4858 8.29953C26.5932 9.40513 27.4698 10.7061 28.1155 12.2024C28.7611 13.6986 29.084 15.2965 29.084 16.9958C29.084 18.6952 28.7616 20.2935 28.1168 21.7907C27.472 23.2879 26.5959 24.5897 25.4885 25.6962C24.3811 26.8027 23.0806 27.6793 21.5871 28.3259C20.0935 28.9725 18.4957 29.2953 16.7936 29.2944ZM18.7184 17.683L16.3059 20.0954C16.1784 20.2229 16.1192 20.375 16.1283 20.5517C16.1365 20.7284 16.2048 20.8809 16.3332 21.0093C16.4607 21.1368 16.6187 21.2006 16.8072 21.2006C16.9958 21.2006 17.1506 21.1368 17.2717 21.0093L20.5093 17.7718C20.7306 17.5514 20.8412 17.2941 20.8412 16.9999C20.8412 16.7058 20.7306 16.4485 20.5093 16.2281L17.2471 12.9646C17.1196 12.8371 16.9671 12.7734 16.7895 12.7734C16.6119 12.7734 16.4598 12.8371 16.3332 12.9646C16.2066 13.0921 16.1424 13.2506 16.1406 13.44C16.1388 13.6294 16.2025 13.7842 16.3319 13.9045L18.7184 16.3169H12.6913C12.4973 16.3169 12.3352 16.3825 12.205 16.5136C12.0748 16.6448 12.0092 16.8073 12.0083 17.0013C12.0074 17.1953 12.073 17.3574 12.205 17.4876C12.3371 17.6179 12.4992 17.683 12.6913 17.683H18.7184Z" fill="white"/>
</svg>
