<svg width="37" height="37" viewBox="0 0 37 37" fill="none" xmlns="http://www.w3.org/2000/svg">
<path d="M21.4655 18.191L17.3104 16.2522C16.9478 16.0839 16.65 16.2726 16.65 16.674V20.3259C16.65 20.7274 16.9478 20.9161 17.3104 20.7477L21.4637 18.8089C21.8281 18.6387 21.8281 18.3612 21.4655 18.191ZM18.5 0.73999C8.69129 0.73999 0.73999 8.69129 0.73999 18.5C0.73999 28.3087 8.69129 36.26 18.5 36.26C28.3087 36.26 36.26 28.3087 36.26 18.5C36.26 8.69129 28.3087 0.73999 18.5 0.73999ZM18.5 25.715C9.40909 25.715 9.24999 24.8954 9.24999 18.5C9.24999 12.1045 9.40909 11.285 18.5 11.285C27.5909 11.285 27.75 12.1045 27.75 18.5C27.75 24.8954 27.5909 25.715 18.5 25.715Z" fill="#5D5D5D"/>
</svg>
